General
Complete name                            : Chasing.Mavericks.2012.WEBRiP.XviD-Acesn8s
Format                                   : AVI
Format/Info                              : Audio Video Interleave
File size                                : 700 MiB
Duration                                 : 1h 56mn
Overall bit rate                         : 837 Kbps
Writing application                      : VirtualDubMod 1.5.4.1 (build 2178/release)
Writing library                          : VirtualDubMod build 2178/release

Video
ID                                       : 0
Format                                   : MPEG-4 Visual
Format profile                           : Advanced Simple@L5
Format settings, BVOP                    : 2
Format settings, QPel                    : No
Format settings, GMC                     : No warppoints
Format settings, Matrix                  : Default (H.263)
Muxing mode                              : Packed bitstream
Codec ID                                 : XVID
Codec ID/Hint                            : XviD
Duration                                 : 1h 56mn
Bit rate                                 : 700 Kbps
Width                                    : 640 pixels
Height                                   : 352 pixels
Display aspect ratio                     : 16:9
Frame rate                               : 23.976 fps
Color space                              : YUV
Chroma subsampling                       : 4:2:0
Bit depth                                : 8 bits
Scan type                                : Progressive
Compression mode                         : Lossy
Bits/(Pixel*Frame)                       : 0.130
Stream size                              : 585 MiB (84%)
Writing library                          : XviD 64

Audio
ID                                       : 1
Format                                   : MPEG Audio
Format version                           : Version 1
Format profile                           : Layer 3
Mode                                     : Joint stereo
Codec ID                                 : 55
Codec ID/Hint                            : MP3
Duration                                 : 1h 56mn
Bit rate mode                            : Constant
Bit rate                                 : 128 Kbps
Channel(s)                               : 2 channels
Sampling rate                            : 48.0 KHz
Compression mode                         : Lossy
Stream size                              : 107 MiB (15%)
Alignment                                : Split accross interleaves
Interleave, duration                     : 42 ms (1.00 video frame)
Interleave, preload duration             : 500 ms

Cast: Gerard Butler, Elisabeth Shue Jonny Weston

Plot:
When young Jay Moriarty discovers that the mythic Mavericks surf break,
one of the biggest waves on Earth, exists just miles from his Santa Cruz 
home, he enlists the help of local legend Frosty Hesson to train him to survive. 

IMDb: http://www.imdb.com/title/tt1629757/

Screens: 
 
http://www.shotpix.com/images/11344457525629793341.jpg
 
http://www.shotpix.com/images/58962259164394922464.jpg
 
http://www.shotpix.com/images/41171525879894288818.jpg
 
http://www.shotpix.com/images/27625361610634435723.jpg
 
http://www.shotpix.com/images/70976130161460779074.jpg
